<?xml version="1.0" encoding="UTF-8"?>
<svg width="72px" height="72px" viewBox="0 0 72 72" version="1.1" xmlns="http://www.w3.org/2000/svg" xmlns:xlink="http://www.w3.org/1999/xlink">
    <title>编组 4</title>
    <defs>
        <rect id="path-1" x="0" y="0" width="72" height="72" rx="14.4"></rect>
    </defs>
    <g id="视觉稿" stroke="none" stroke-width="1" fill="none" fill-rule="evenodd">
        <g id="微信引导" transform="translate(-48.000000, -212.000000)">
            <g id="双行文字带图标、关闭和按钮" transform="translate(24.000000, 181.000000)">
                <g id="编组-4" transform="translate(24.000000, 31.000000)">
                    <rect id="矩形" x="6" y="6" width="60" height="60"></rect>
                    <g id="Fill-1">
                        <mask id="mask-2" fill="white">
                            <use xlink:href="#path-1"></use>
                        </mask>
                        <use id="蒙版" fill="#1677FF" xlink:href="#path-1"></use>
                        <path d="M9.54127345,41.956534 C11.4075134,40.3132684 14.8192725,39.510373 16.6371077,39.3301822 C23.3603809,38.6678169 29.5833669,41.2251528 36.9284079,44.7999267 C31.765019,51.5147682 25.1900831,55.7091239 18.6123366,55.7091239 C7.29435296,55.7091239 3.94786236,46.8195007 9.54127345,41.956534 Z M47.6836465,41.4459412 C50.2975067,36.9164993 52.383286,31.758107 53.75486,26.1528289 L39.4154787,26.1528289 L39.4154787,21.0028684 L56.9817438,21.0028684 L56.9817438,18.1282467 L39.4154787,18.1282467 L39.4154787,9.54216867 L32.245632,9.54216867 C30.9883559,9.54216867 30.9883559,10.7800829 30.9883559,10.7800829 L30.9883559,18.1282467 L13.2212889,18.1282467 L13.2212889,21.0028684 L30.9883559,21.0028684 L30.9883559,26.1528289 L16.3191973,26.1528289 L16.3191973,29.0277629 L44.7690518,29.0277629 C43.7278797,32.603786 42.3300734,35.9618313 40.6705689,39.0122718 C31.4396137,35.9752598 21.5887645,33.5134843 15.4010672,35.0287113 C11.4440513,36.001492 8.89483489,37.7368829 7.39647152,39.5544058 C0.522987181,47.8928386 5.45247152,60.5583499 19.9679838,60.5583499 C28.5500021,60.5583499 36.8175453,55.7865716 43.2257187,47.9240675 C52.7817669,52.5056617 73.5039915,60.3709764 73.5039915,60.3709764 L73.5039915,49.1610448" fill="#FEFEFE" mask="url(#mask-2)"></path>
                    </g>
                </g>
            </g>
        </g>
    </g>
</svg>